<svg width="61" height="61" viewBox="0 0 61 61" fill="none" xmlns="http://www.w3.org/2000/svg">
<rect y="0.000244141" width="61" height="61" rx="30.5" fill="#552716"/>
<path d="M38 38.0002C36.6125 38.0002 35.5 39.1127 35.5 40.5002C35.5 41.1633 35.7634 41.7992 36.2322 42.268C36.7011 42.7369 37.337 43.0002 38 43.0002C38.663 43.0002 39.2989 42.7369 39.7678 42.268C40.2366 41.7992 40.5 41.1633 40.5 40.5002C40.5 39.8372 40.2366 39.2013 39.7678 38.7325C39.2989 38.2636 38.663 38.0002 38 38.0002ZM18 18.0002V20.5002H20.5L25 29.9877L23.3 33.0502C23.1125 33.4002 23 33.8127 23 34.2502C23 34.9133 23.2634 35.5492 23.7322 36.018C24.2011 36.4869 24.837 36.7502 25.5 36.7502H40.5V34.2502H26.025C25.9421 34.2502 25.8626 34.2173 25.804 34.1587C25.7454 34.1001 25.7125 34.0206 25.7125 33.9377C25.7125 33.8752 25.725 33.8252 25.75 33.7877L26.875 31.7502H36.1875C37.125 31.7502 37.95 31.2252 38.375 30.4627L42.85 22.3752C42.9375 22.1752 43 21.9627 43 21.7502C43 21.4187 42.8683 21.1008 42.6339 20.8664C42.3995 20.6319 42.0815 20.5002 41.75 20.5002H23.2625L22.0875 18.0002M25.5 38.0002C24.1125 38.0002 23 39.1127 23 40.5002C23 41.1633 23.2634 41.7992 23.7322 42.268C24.2011 42.7369 24.837 43.0002 25.5 43.0002C26.163 43.0002 26.7989 42.7369 27.2678 42.268C27.7366 41.7992 28 41.1633 28 40.5002C28 39.8372 27.7366 39.2013 27.2678 38.7325C26.7989 38.2636 26.163 38.0002 25.5 38.0002Z" fill="#FFF7DD"/>
</svg>
