<svg width="61" height="61" viewBox="0 0 61 61" fill="none" xmlns="http://www.w3.org/2000/svg">
<rect width="61" height="61" rx="30.5" fill="#552716"/>
<path d="M38 38C36.6125 38 35.5 39.1125 35.5 40.5C35.5 41.163 35.7634 41.7989 36.2322 42.2678C36.7011 42.7366 37.337 43 38 43C38.663 43 39.2989 42.7366 39.7678 42.2678C40.2366 41.7989 40.5 41.163 40.5 40.5C40.5 39.837 40.2366 39.2011 39.7678 38.7322C39.2989 38.2634 38.663 38 38 38ZM18 18V20.5H20.5L25 29.9875L23.3 33.05C23.1125 33.4 23 33.8125 23 34.25C23 34.913 23.2634 35.5489 23.7322 36.0178C24.2011 36.4866 24.837 36.75 25.5 36.75H40.5V34.25H26.025C25.9421 34.25 25.8626 34.2171 25.804 34.1585C25.7454 34.0999 25.7125 34.0204 25.7125 33.9375C25.7125 33.875 25.725 33.825 25.75 33.7875L26.875 31.75H36.1875C37.125 31.75 37.95 31.225 38.375 30.4625L42.85 22.375C42.9375 22.175 43 21.9625 43 21.75C43 21.4185 42.8683 21.1005 42.6339 20.8661C42.3995 20.6317 42.0815 20.5 41.75 20.5H23.2625L22.0875 18M25.5 38C24.1125 38 23 39.1125 23 40.5C23 41.163 23.2634 41.7989 23.7322 42.2678C24.2011 42.7366 24.837 43 25.5 43C26.163 43 26.7989 42.7366 27.2678 42.2678C27.7366 41.7989 28 41.163 28 40.5C28 39.837 27.7366 39.2011 27.2678 38.7322C26.7989 38.2634 26.163 38 25.5 38Z" fill="#FFF7DD"/>
</svg>
