<svg width="189" height="188" viewBox="0 0 189 188" fill="none" xmlns="http://www.w3.org/2000/svg">
<path d="M96.4266 20.0999L98.2103 3.61434L100.207 3.83034L99.3217 12.0087L99.5149 12.0296L107.805 4.65252L110.413 4.93471L102.686 11.6235L108.63 21.4203L106.215 21.159L101.313 12.8757L99.0012 14.971L98.4229 20.3159L96.4266 20.0999Z" fill="#FFF7DD"/>
<path d="M130.166 10.9566L124.672 26.6019L122.839 25.9581L118.627 10.6804L118.474 10.6268L114.161 22.9108L112.266 22.2455L117.76 6.60022L119.593 7.24402L123.825 22.563L123.978 22.6166L128.302 10.3021L130.166 10.9566Z" fill="#FFF7DD"/>
<path d="M145.196 29.4767C144.235 30.9374 143.14 32.026 141.912 32.7425C140.684 33.4591 139.42 33.8031 138.12 33.7746C136.82 33.746 135.58 33.3428 134.399 32.5651C133.218 31.7873 132.357 30.8071 131.818 29.6245C131.278 28.4418 131.095 27.1449 131.268 25.7337C131.441 24.3224 132.009 22.8865 132.97 21.4259C133.932 19.9653 135.027 18.8767 136.255 18.1601C137.483 17.4435 138.747 17.0995 140.047 17.128C141.346 17.1566 142.587 17.5598 143.768 18.3375C144.949 19.1153 145.809 20.0955 146.349 21.2782C146.889 22.4608 147.072 23.7577 146.899 25.1689C146.726 26.5802 146.158 28.0161 145.196 29.4767ZM143.573 28.408C144.363 27.2089 144.829 26.0647 144.971 24.9755C145.118 23.8893 144.99 22.9102 144.588 22.0382C144.191 21.1691 143.573 20.4585 142.735 19.9064C141.896 19.3542 140.997 19.0659 140.037 19.0414C139.082 19.0198 138.132 19.2895 137.188 19.8502C136.248 20.414 135.383 21.2954 134.593 22.4946C133.804 23.6937 133.336 24.8364 133.189 25.9226C133.047 27.0118 133.175 27.9909 133.572 28.86C133.973 29.732 134.594 30.4441 135.432 30.9962C136.271 31.5484 137.167 31.8353 138.123 31.8568C139.082 31.8813 140.032 31.6117 140.972 31.0479C141.917 30.4871 142.784 29.6072 143.573 28.408Z" fill="#FFF7DD"/>
<path d="M146.033 41.3576L155.673 27.1241L157.001 28.6734L149.002 40.0931L149.107 40.216L161.659 34.1079L163.134 35.8292L155.177 47.2981L155.282 47.4211L167.792 41.2637L169.119 42.8129L153.579 50.161L152.23 48.5872L159.881 37.2096L159.797 37.1112L147.382 42.9314L146.033 41.3576Z" fill="#FFF7DD"/>
<path d="M177.427 58.2389L178.168 60.5182L166.819 70.1312L166.879 70.316L181.711 71.4218L182.452 73.7011L166.681 78.8254L166.101 77.039L178.083 73.1457L178.033 72.9917L164.45 71.9568L163.889 70.2319L174.269 61.4105L174.219 61.2564L162.238 65.1497L161.657 63.3633L177.427 58.2389Z" fill="#FFF7DD"/>
<path d="M176.354 97.5615C174.607 97.641 173.083 97.3943 171.782 96.8213C170.481 96.2484 169.46 95.4276 168.72 94.3591C167.979 93.2905 167.577 92.0498 167.513 90.6371C167.448 89.2243 167.736 87.9523 168.377 86.8208C169.017 85.6894 169.959 84.7793 171.202 84.0905C172.446 83.4017 173.942 83.0175 175.689 82.938C177.436 82.8584 178.96 83.1051 180.261 83.6781C181.562 84.251 182.583 85.0718 183.324 86.1404C184.064 87.2089 184.466 88.4496 184.53 89.8623C184.595 91.2751 184.307 92.5472 183.667 93.6786C183.027 94.81 182.085 95.7201 180.841 96.4089C179.597 97.0977 178.102 97.4819 176.354 97.5615ZM176.266 95.6203C177.7 95.555 178.9 95.2599 179.865 94.7351C180.83 94.2157 181.548 93.5373 182.017 92.7C182.487 91.8681 182.7 90.9507 182.654 89.9478C182.608 88.9448 182.313 88.0478 181.77 87.2567C181.226 86.4709 180.45 85.8605 179.441 85.4256C178.433 84.996 177.211 84.8138 175.777 84.8791C174.343 84.9444 173.143 85.2368 172.178 85.7562C171.213 86.2811 170.496 86.9594 170.025 87.7913C169.556 88.6286 169.344 89.5487 169.389 90.5516C169.435 91.5546 169.73 92.4489 170.273 93.2347C170.817 94.0258 171.593 94.6362 172.602 95.0658C173.61 95.5007 174.832 95.6856 176.266 95.6203Z" fill="#FFF7DD"/>
<path d="M167.577 102.138L183.89 105.109L182.886 110.621C182.654 111.896 182.246 112.902 181.662 113.641C181.083 114.38 180.38 114.878 179.555 115.133C178.729 115.389 177.836 115.429 176.874 115.254C175.913 115.079 175.097 114.727 174.425 114.199C173.753 113.671 173.278 112.962 173.002 112.072C172.73 111.183 172.709 110.106 172.939 108.843L173.752 104.382L175.536 104.707L174.735 109.104C174.577 109.975 174.577 110.699 174.735 111.276C174.892 111.859 175.182 112.313 175.606 112.637C176.034 112.967 176.575 113.192 177.228 113.311C177.881 113.429 178.475 113.411 179.008 113.256C179.541 113.101 179.989 112.779 180.352 112.291C180.72 111.804 180.985 111.12 181.145 110.238L181.778 106.765L167.217 104.114L167.577 102.138ZM173.507 111.151L165.447 113.832L165.865 111.538L173.913 108.921L173.507 111.151Z" fill="#FFF7DD"/>
<path d="M164.342 117.045L179.731 123.22L176.005 132.508L174.351 131.844L177.33 124.42L172.13 122.334L169.344 129.277L167.691 128.614L170.477 121.67L165.247 119.572L162.22 127.116L160.567 126.453L164.342 117.045Z" fill="#FFF7DD"/>
<path d="M154.692 136.417L156.016 134.78L165.083 149.94L163.779 151.551L147.057 145.861L148.38 144.224L162.35 149.147L162.432 149.046L154.692 136.417ZM159.241 141.093L153.906 147.692L152.521 146.572L157.856 139.973L159.241 141.093Z" fill="#FFF7DD"/>
<path d="M144.42 148.258L154.797 161.191L150.276 164.819C149.375 165.542 148.507 165.983 147.672 166.141C146.84 166.303 146.071 166.238 145.366 165.945C144.664 165.657 144.06 165.197 143.553 164.566C143.108 164.01 142.838 163.472 142.746 162.951C142.649 162.434 142.676 161.941 142.827 161.474C142.974 161.01 143.192 160.579 143.481 160.181L143.38 160.055C142.964 160.347 142.455 160.527 141.852 160.595C141.249 160.664 140.624 160.57 139.976 160.315C139.329 160.059 138.731 159.591 138.184 158.909C137.664 158.26 137.343 157.559 137.223 156.805C137.102 156.05 137.238 155.267 137.63 154.453C138.023 153.64 138.728 152.825 139.747 152.007L144.42 148.258ZM143.969 150.904L140.862 153.397C139.839 154.218 139.271 154.998 139.159 155.739C139.047 156.486 139.218 157.145 139.674 157.713C140.026 158.151 140.462 158.465 140.982 158.657C141.506 158.853 142.063 158.896 142.655 158.789C143.25 158.685 143.83 158.407 144.394 157.954L147.577 155.4L143.969 150.904ZM148.671 156.764L145.766 159.095C145.295 159.473 144.944 159.907 144.713 160.397C144.479 160.889 144.385 161.393 144.432 161.909C144.475 162.428 144.679 162.915 145.044 163.37C145.5 163.938 146.084 164.262 146.798 164.34C147.514 164.422 148.302 164.119 149.161 163.43L152.117 161.059L148.671 156.764Z" fill="#FFF7DD"/>
<path d="M122.994 171.25C122.236 169.674 121.866 168.175 121.883 166.753C121.9 165.331 122.255 164.07 122.948 162.971C123.641 161.871 124.625 161.014 125.899 160.401C127.174 159.789 128.457 159.555 129.749 159.7C131.04 159.846 132.247 160.356 133.368 161.23C134.489 162.104 135.429 163.33 136.187 164.906C136.945 166.482 137.315 167.981 137.298 169.402C137.281 170.824 136.926 172.085 136.233 173.185C135.54 174.285 134.556 175.141 133.282 175.754C132.007 176.367 130.724 176.6 129.433 176.455C128.141 176.31 126.934 175.8 125.813 174.925C124.692 174.051 123.752 172.826 122.994 171.25ZM124.746 170.408C125.368 171.701 126.109 172.689 126.97 173.371C127.827 174.056 128.732 174.45 129.686 174.554C130.636 174.66 131.563 174.496 132.468 174.061C133.373 173.626 134.082 173.003 134.597 172.193C135.107 171.384 135.364 170.431 135.369 169.333C135.369 168.237 135.058 167.042 134.436 165.748C133.813 164.454 133.074 163.465 132.218 162.78C131.357 162.098 130.452 161.704 129.502 161.598C128.548 161.494 127.618 161.659 126.713 162.094C125.809 162.529 125.101 163.151 124.591 163.959C124.077 164.77 123.82 165.723 123.82 166.819C123.815 167.917 124.123 169.114 124.746 170.408Z" fill="#FFF7DD"/>
<path d="M108.059 183.48L106.093 183.886L103.873 173.134C103.643 172.024 103.7 170.979 104.044 169.998C104.383 169.024 104.973 168.189 105.816 167.491C106.659 166.799 107.718 166.321 108.992 166.058C110.266 165.795 111.428 165.814 112.476 166.116C113.526 166.422 114.403 166.955 115.105 167.714C115.803 168.479 116.267 169.417 116.496 170.527L118.716 181.279L116.75 181.685L114.562 171.092C114.399 170.299 114.078 169.629 113.602 169.083C113.126 168.542 112.529 168.161 111.811 167.94C111.089 167.725 110.276 167.711 109.372 167.898C108.468 168.084 107.727 168.419 107.149 168.902C106.572 169.391 106.175 169.977 105.958 170.661C105.737 171.352 105.708 172.094 105.872 172.886L108.059 183.48Z" fill="#FFF7DD"/>
<path d="M98.5771 182.779L98.5434 184.56L86.1093 184.325L86.1429 182.544L91.3562 182.643L91.6357 167.845L93.6433 167.882L93.3638 182.68L98.5771 182.779Z" fill="#FFF7DD"/>
<path d="M72.2927 180.218L71.7367 181.911L59.9217 178.029L60.4776 176.337L65.4314 177.964L70.051 163.903L71.9586 164.53L67.339 178.591L72.2927 180.218Z" fill="#FFF7DD"/>
<path d="M61.5704 160.693L53.023 174.902L51.3024 173.867L55.1087 167.54L47.5323 162.982L43.7261 169.31L42.0054 168.275L50.5528 154.066L52.2735 155.101L48.4505 161.456L56.0268 166.013L59.8498 159.658L61.5704 160.693Z" fill="#FFF7DD"/>
<path d="M46.8789 151.067L35.4934 163.122L28.2179 156.251L29.441 154.956L35.2567 160.448L39.1037 156.375L33.6647 151.238L34.8878 149.943L40.3268 155.08L44.196 150.983L38.2861 145.401L39.5092 144.106L46.8789 151.067Z" fill="#FFF7DD"/>
<path d="M16.2138 129.542L17.1953 131.294C16.7494 131.68 16.4084 132.109 16.172 132.582C15.9331 133.05 15.787 133.54 15.7338 134.053C15.6732 134.563 15.701 135.076 15.8172 135.593C15.9333 136.11 16.1259 136.608 16.395 137.088C16.8857 137.964 17.5516 138.634 18.3926 139.097C19.231 139.555 20.1985 139.752 21.2951 139.689C22.389 139.62 23.5623 139.235 24.8149 138.533C26.0675 137.832 27.0086 137.032 27.6381 136.135C28.2651 135.233 28.602 134.305 28.6489 133.351C28.6932 132.391 28.47 131.474 27.9792 130.598C27.7101 130.118 27.3857 129.693 27.0058 129.324C26.626 128.956 26.205 128.663 25.7428 128.445C25.2733 128.226 24.7766 128.095 24.2527 128.055C23.7215 128.012 23.1773 128.079 22.6201 128.255L21.6386 126.503C22.4518 126.221 23.248 126.09 24.0271 126.112C24.8063 126.133 25.5458 126.288 26.2457 126.576C26.9409 126.867 27.5752 127.276 28.1485 127.803C28.7192 128.324 29.2091 128.95 29.618 129.68C30.3092 130.914 30.6226 132.18 30.558 133.478C30.4935 134.776 30.0599 136.012 29.2572 137.186C28.4546 138.36 27.2904 139.374 25.7646 140.229C24.2389 141.083 22.766 141.547 21.346 141.618C19.926 141.69 18.6455 141.414 17.5046 140.791C16.3636 140.169 15.4475 139.24 14.7563 138.006C14.3474 137.276 14.0694 136.532 13.9225 135.773C13.773 135.009 13.758 134.253 13.8774 133.506C13.9922 132.761 14.2439 132.051 14.6326 131.375C15.0166 130.702 15.5437 130.091 16.2138 129.542Z" fill="#FFF7DD"/>
<path d="M24.6752 120.209L8.70528 124.672L8.16484 122.738L15.2765 120.751L12.8968 112.235L5.78517 114.223L5.24473 112.289L21.2147 107.826L21.7551 109.76L14.6123 111.756L16.992 120.271L24.1348 118.275L24.6752 120.209Z" fill="#FFF7DD"/>
<path d="M11.7469 89.2973C13.495 89.2449 15.0151 89.5153 16.3073 90.1083C17.5995 90.7014 18.6074 91.5379 19.331 92.6179C20.0546 93.6978 20.4376 94.9446 20.4799 96.3582C20.5223 97.7717 20.2147 99.0392 19.5571 100.161C18.8995 101.282 17.9435 102.177 16.6891 102.847C15.4347 103.516 13.9335 103.877 12.1854 103.929C10.4373 103.982 8.9172 103.711 7.62499 103.118C6.33278 102.525 5.32488 101.689 4.60129 100.609C3.8777 99.5288 3.49473 98.2821 3.45236 96.8685C3.40999 95.4549 3.71761 94.1875 4.37522 93.0661C5.03284 91.9448 5.98883 91.0494 7.2432 90.38C8.49757 89.7106 9.9988 89.3497 11.7469 89.2973ZM11.8051 91.2396C10.3699 91.2826 9.16589 91.559 8.19294 92.0688C7.21983 92.5732 6.4919 93.2403 6.00916 94.0702C5.52626 94.8947 5.29985 95.8087 5.32993 96.8122C5.36 97.8158 5.64083 98.7173 6.17241 99.5168C6.70382 100.311 7.47039 100.933 8.47213 101.384C9.4737 101.829 10.6921 102.03 12.1272 101.987C13.5624 101.944 14.7665 101.67 15.7396 101.166C16.7126 100.656 17.4405 99.9891 17.9234 99.1646C18.4061 98.3347 18.6325 97.418 18.6024 96.4144C18.5723 95.4109 18.2916 94.5121 17.7601 93.718C17.2286 92.9185 16.462 92.2962 15.4604 91.851C14.4587 91.4004 13.2402 91.1966 11.8051 91.2396Z" fill="#FFF7DD"/>
<path d="M12.1441 69.41L11.7264 71.374C11.1367 71.37 10.5972 71.4677 10.1078 71.6671C9.61953 71.8613 9.1864 72.1334 8.80843 72.4834C8.42631 72.8271 8.10855 73.2313 7.85517 73.6962C7.60178 74.161 7.41782 74.6627 7.30328 75.2012C7.09441 76.1832 7.15334 77.1256 7.48006 78.0284C7.80791 78.9259 8.40494 79.7123 9.27117 80.3877C10.1385 81.0578 11.2744 81.5422 12.6788 81.8409C14.0832 82.1396 15.3178 82.1594 16.3828 81.9003C17.4489 81.6359 18.3144 81.1605 18.9791 80.4741C19.6449 79.7825 20.0823 78.9456 20.2912 77.9636C20.4057 77.4251 20.4418 76.892 20.3996 76.3642C20.3573 75.8365 20.2342 75.3385 20.0303 74.8702C19.8222 74.3955 19.5347 73.9701 19.1677 73.5941C18.7965 73.2116 18.3434 72.9028 17.8085 72.6676L18.2262 70.7036C19.0237 71.0277 19.7082 71.4548 20.2798 71.9847C20.8514 72.5146 21.3051 73.1188 21.6409 73.7973C21.9714 74.4746 22.1785 75.2002 22.2623 75.974C22.3471 76.7426 22.3025 77.5361 22.1285 78.3544C21.8343 79.7377 21.2347 80.896 20.3299 81.8293C19.425 82.7626 18.2839 83.4056 16.9065 83.7583C15.5291 84.111 13.9851 84.1054 12.2745 83.7416C10.5639 83.3778 9.15132 82.7545 8.03671 81.8717C6.9221 80.989 6.14144 79.9373 5.69472 78.7165C5.24801 77.4957 5.17176 76.1937 5.46597 74.8104C5.64002 73.9921 5.9222 73.2492 6.3125 72.5817C6.70393 71.9089 7.19107 71.331 7.77392 70.8479C8.35149 70.3637 9.00916 69.9959 9.74693 69.7444C10.4794 69.4919 11.2785 69.3804 12.1441 69.41Z" fill="#FFF7DD"/>
<path d="M23.3081 51.7221C24.8814 52.4857 26.1032 53.4297 26.9735 54.554C27.8438 55.6784 28.3493 56.8867 28.4901 58.179C28.6309 59.4713 28.3925 60.7536 27.775 62.0259C27.1576 63.2982 26.2976 64.2788 25.1953 64.9677C24.0929 65.6567 22.8309 66.0072 21.4091 66.0191C19.9873 66.031 18.4898 65.6552 16.9164 64.8916C15.3431 64.128 14.1213 63.184 13.251 62.0597C12.3807 60.9353 11.8752 59.727 11.7344 58.4347C11.5936 57.1424 11.832 55.8601 12.4494 54.5878C13.0669 53.3155 13.9268 52.3349 15.0292 51.646C16.1316 50.957 17.3936 50.6066 18.8154 50.5946C20.2372 50.5827 21.7347 50.9585 23.3081 51.7221ZM22.4596 53.4703C21.1679 52.8433 19.9729 52.5303 18.8745 52.5312C17.7784 52.5273 16.8242 52.7811 16.0119 53.2929C15.2019 53.7997 14.5777 54.5048 14.1393 55.408C13.701 56.3112 13.5321 57.2402 13.6327 58.195C13.7356 59.145 14.1265 60.0517 14.8054 60.9151C15.4867 61.7738 16.4732 62.5165 17.7649 63.1434C19.0566 63.7704 20.2504 64.0858 21.3465 64.0898C22.4449 64.0889 23.3991 63.835 24.2091 63.3281C25.0214 62.8164 25.6468 62.1089 26.0851 61.2057C26.5235 60.3025 26.6912 59.3759 26.5883 58.426C26.4877 57.4712 26.0968 56.5645 25.4155 55.7058C24.7366 54.8424 23.7513 54.0972 22.4596 53.4703Z" fill="#FFF7DD"/>
<path d="M33.1957 52.0332L20.1528 41.7941L21.3927 40.2147L33.0345 49.3539L37.7941 43.291L39.1952 44.3909L33.1957 52.0332Z" fill="#FFF7DD"/>
<path d="M42.3046 41.2582L40.7196 42.6435L34.3921 26.1514L35.9528 24.7874L51.4492 33.2661L49.8642 34.6514L36.9475 27.402L36.85 27.4873L42.3046 41.2582ZM38.6274 35.8696L45.0164 30.2858L46.1886 31.627L39.7996 37.2108L38.6274 35.8696Z" fill="#FFF7DD"/>
<path d="M44.7726 20.1477L43.8909 18.6L54.6966 12.4438L55.5784 13.9915L51.0478 16.5726L58.3743 29.4326L56.6297 30.4266L49.3032 17.5666L44.7726 20.1477Z" fill="#FFF7DD"/>
<path d="M66.4219 25.4372L61.2604 9.67913L70.7706 6.56408L71.3251 8.25683L63.7231 10.7469L65.4671 16.0713L72.5767 13.7426L73.1311 15.4354L66.0215 17.7641L67.7756 23.1194L75.5008 20.589L76.0552 22.2818L66.4219 25.4372Z" fill="#FFF7DD"/>
</svg>
