<svg width="188" height="30" viewBox="0 0 188 30" fill="none" xmlns="http://www.w3.org/2000/svg">
<path d="M6.10361 30L8.72881 18.9051L0 11.4458L11.498 10.4643L16.0011 0L20.5041 10.4622L32 11.4437L23.2712 18.903L25.8985 29.9979L16.0011 24.109L6.10361 30Z" fill="#FFF7DD"/>
<path d="M45.1036 30L47.7288 18.9051L39 11.4458L50.498 10.4643L55.0011 0L59.5041 10.4622L71 11.4437L62.2712 18.903L64.8985 29.9979L55.0011 24.109L45.1036 30Z" fill="#FFF7DD"/>
<path d="M84.1036 30L86.7288 18.9051L78 11.4458L89.498 10.4643L94.0011 0L98.5041 10.4622L110 11.4437L101.271 18.903L103.899 29.9979L94.0011 24.109L84.1036 30Z" fill="#FFF7DD"/>
<path d="M123.104 30L125.729 18.9051L117 11.4458L128.498 10.4643L133.001 0L137.504 10.4622L149 11.4437L140.271 18.903L142.899 29.9979L133.001 24.109L123.104 30Z" fill="#FFF7DD"/>
<path d="M165.332 25.6188L172.001 21.6511L178.67 25.671L176.923 18.1533L182.798 13.1414L175.071 12.4628L172.001 5.36266L168.931 12.4106L161.204 13.0892L167.079 18.1533L165.332 25.6188ZM162.104 30L164.729 18.9051L156 11.4458L167.498 10.4643L172.001 0L176.504 10.4622L188 11.4437L179.271 18.903L181.899 29.9979L172.001 24.109L162.104 30Z" fill="#FFF7DD"/>
</svg>
