<svg width="61" height="61" viewBox="0 0 61 61" fill="none" xmlns="http://www.w3.org/2000/svg">
<rect width="61" height="61" rx="30.5" fill="#552716"/>
<path d="M40.7739 20.2196C39.4376 18.877 37.8462 17.8125 36.0924 17.0881C34.3385 16.3637 32.4573 15.9938 30.5583 16.0001C22.6015 16.0001 16.1166 22.4526 16.1166 30.3695C16.1166 32.907 16.7869 35.372 18.0402 37.547L16 45L23.6508 42.999C25.7638 44.1445 28.1392 44.7535 30.5583 44.7535C38.5151 44.7535 45 38.301 45 30.384C45 26.5416 43.499 22.9311 40.7739 20.2196ZM30.5583 42.3175C28.4015 42.3175 26.2884 41.7375 24.4377 40.65L24.0005 40.389L19.4538 41.578L20.6633 37.17L20.3719 36.7205C19.1733 34.8168 18.537 32.616 18.5357 30.3695C18.5357 23.7866 23.9276 18.4216 30.5437 18.4216C33.7497 18.4216 36.7663 19.6686 39.0251 21.9306C40.1438 23.0382 41.0302 24.3557 41.6331 25.8069C42.236 27.258 42.5433 28.8138 42.5372 30.384C42.5663 36.967 37.1744 42.3175 30.5583 42.3175ZM37.1452 33.3855C36.7809 33.2115 35.003 32.3415 34.6824 32.211C34.3472 32.095 34.1141 32.037 33.8663 32.385C33.6186 32.7475 32.9337 33.5595 32.7296 33.7915C32.5256 34.038 32.307 34.067 31.9427 33.8785C31.5784 33.7045 30.4126 33.313 29.0427 32.095C27.9643 31.138 27.2503 29.9635 27.0317 29.601C26.8276 29.2385 27.0025 29.05 27.192 28.8615C27.3523 28.702 27.5563 28.441 27.7312 28.238C27.906 28.035 27.9789 27.8755 28.0955 27.6435C28.2121 27.397 28.1538 27.194 28.0663 27.02C27.9789 26.846 27.2502 25.0771 26.9588 24.3521C26.6673 23.6561 26.3613 23.7431 26.1427 23.7286H25.4432C25.1955 23.7286 24.8166 23.8156 24.4814 24.1781C24.1608 24.5406 23.2281 25.4106 23.2281 27.1795C23.2281 28.9485 24.5251 30.6595 24.7 30.8915C24.8749 31.138 27.2503 34.763 30.8643 36.3145C31.7241 36.6915 32.3945 36.909 32.9191 37.0685C33.7789 37.344 34.5658 37.3005 35.1925 37.2135C35.892 37.112 37.3347 36.3435 37.6261 35.5025C37.9322 34.6615 37.9322 33.951 37.8302 33.7915C37.7281 33.632 37.5095 33.5595 37.1452 33.3855Z" fill="white"/>
</svg>
