<svg width="29" height="27" viewBox="0 0 29 27" fill="none" xmlns="http://www.w3.org/2000/svg">
<path d="M8.05556 17.4706H22.5556C23.4417 17.4706 24.1667 18.1853 24.1667 19.0588C24.1667 19.9324 23.4417 20.6471 22.5556 20.6471H6.44444C5.55833 20.6471 4.83333 19.9324 4.83333 19.0588V3.17647H1.61111C0.725 3.17647 0 2.46176 0 1.58824C0 0.714706 0.725 0 1.61111 0H6.44444C7.33056 0 8.05556 0.714706 8.05556 1.58824V4.76471H29L22.5556 15.8824H8.05556V17.4706ZM7.25 22.2353C8.58722 22.2353 9.66667 23.2994 9.66667 24.6176C9.66667 25.9359 8.58722 27 7.25 27C5.91278 27 4.83333 25.9359 4.83333 24.6176C4.83333 23.2994 5.91278 22.2353 7.25 22.2353ZM21.75 22.2353C23.0872 22.2353 24.1667 23.2994 24.1667 24.6176C24.1667 25.9359 23.0872 27 21.75 27C20.4128 27 19.3333 25.9359 19.3333 24.6176C19.3333 23.2994 20.4128 22.2353 21.75 22.2353Z" fill="#552716"/>
</svg>
